<?xml version="1.0" encoding="utf-8"?>
<!-- Generator: Adobe Illustrator 27.6.1, SVG Export Plug-In . SVG Version: 6.00 Build 0)  -->
<svg version="1.1" id="Layer_1" xmlns="http://www.w3.org/2000/svg" xmlns:xlink="http://www.w3.org/1999/xlink" x="0px" y="0px"
	 viewBox="0 0 512 512" style="enable-background:new 0 0 512 512;" xml:space="preserve">
<style type="text/css">
	.st0{fill:#F1F3F4;}
	.st1{fill:#F1F3F4;stroke:#231F20;stroke-width:2.466;stroke-miterlimit:10;}
	.st2{fill:none;stroke:#FFFFFF;stroke-width:0.9589;stroke-miterlimit:10;}
	.st3{fill:#231F20;}
	.st4{fill:none;stroke:#FFFFFF;stroke-width:0.9265;stroke-miterlimit:10;}
	.st5{fill:#F1F3F4;stroke:#231F20;stroke-width:1.9979;stroke-miterlimit:10;}
	.st6{fill:#F1F3F4;stroke:#231F20;stroke-width:2.0486;stroke-miterlimit:10;}
	.st7{fill:#F1F3F4;stroke:#231F20;stroke-width:2.4616;stroke-miterlimit:10;}
	.st8{fill:#F1F3F4;stroke:#F1F3F4;stroke-width:1.3933;stroke-miterlimit:10;}
	.st9{fill:none;stroke:#231F20;stroke-width:3.699;stroke-miterlimit:10;}
	.st10{fill:none;stroke:#231F20;stroke-width:0.7655;stroke-miterlimit:10;}
</style>
<rect class="st0" width="512" height="512"/>
<g>
	<path class="st1" d="M214.7,140c6.8,40.2,10.9,85.1,10,134c-0.3,13.2-0.9,26.1-1.8,38.6l0,70.4v26.3c2.6,9.7-4.3,17.6-10.7,18
		c-5.2,0.3-11.3-4.2-13.2-11.2l7.9-7.1c-2.6-10.5-4.8-23.3-5.3-37.9c-0.6-19.3,1.9-35.8,4.9-48.5c-0.4-6.9-4.6-12.7-10.7-14.8
		c-4-1.4-7.7-0.8-9.6-0.3l-5-2.9c0.7-15.4,1.7-28.4,2.5-37.9c2.2-25.8,4.8-44.9,7.1-59.8c3.6-22.7,5.8-29.7,7.1-33.4
		C203,158.7,209.7,147.4,214.7,140z"/>
	<path class="st2" d="M223.6,299.9c-5,1.1-11.3,2-18.6,2.2c-9.6,0.2-17.7-0.9-23.8-2.2"/>
	<line class="st2" x1="222.9" y1="312.5" x2="202.4" y2="312.5"/>
	<ellipse class="st3" cx="214.3" cy="322.6" rx="4.5" ry="4"/>
	<ellipse class="st3" cx="212.7" cy="354.6" rx="4.5" ry="4"/>
	<ellipse class="st3" cx="212.7" cy="387.7" rx="4.5" ry="4"/>
</g>
<g>
	<path class="st1" d="M312.8,140c-6.3,40.2-10.2,85.1-9.3,134c0.2,13.2,0.8,26.1,1.7,38.6l0,70.4v26.3c-2.4,9.7,4,17.6,10,18
		c4.8,0.3,10.5-4.2,12.3-11.2l-7.3-7.1c2.4-10.5,4.5-23.3,4.9-37.9c0.6-19.3-1.8-35.8-4.6-48.5c0.4-6.9,4.3-12.7,10-14.8
		c3.7-1.4,7.2-0.8,9-0.3l4.7-2.9c-0.7-15.4-1.6-28.4-2.3-37.9c-2-25.8-4.4-44.9-6.7-59.8c-3.4-22.7-5.5-29.7-6.7-33.4
		C323.8,158.7,317.5,147.4,312.8,140z"/>
	<path class="st4" d="M304.6,299.9c4.7,1.1,10.6,2,17.3,2.2c9,0.2,16.6-0.9,22.2-2.2"/>
	<line class="st4" x1="305.2" y1="312.5" x2="324.4" y2="312.5"/>
	<ellipse class="st3" cx="313.3" cy="322.6" rx="4.2" ry="4"/>
	<ellipse class="st3" cx="314.8" cy="354.6" rx="4.2" ry="4"/>
	<ellipse class="st3" cx="314.8" cy="387.7" rx="4.2" ry="4"/>
</g>
<path class="st5" d="M225.6,275.9l-43.1,1.2c-3.2-30.2-1-54.9,1.6-71.6c3.2-21,6.5-41.1,20.2-59.7c5.7-7.8,11.6-13,15.9-16.4
	c2.2,14.2,3.9,29.7,4.9,46.2c0.5,7.5,0.8,14.8,0.9,21.8L225.6,275.9"/>
<path class="st6" d="M302.7,276.3l45.2,0.6c3-30.3,0.4-55-2.4-71.6c-3.6-21-7.3-41.1-21.9-59.5c-6.1-7.7-12.3-12.9-16.9-16.2
	c-2.1,14.3-3.8,29.7-4.7,46.3c-0.4,7.5-0.6,14.8-0.7,21.8L302.7,276.3"/>
<g>
	<path class="st7" d="M274.6,371.3c0.6-19.2-1.8-35.7-4.6-48.3c0.2-3.9,1.6-7.4,3.7-10.1c-2-0.2-4-0.4-6-0.6
		c-2.5,0.1-4.9,0.1-7.4,0.2c-1.9,0.4-3.7,0.8-5.5,1.2c0,0-0.1,0-0.1,0v69.5v26.2c-2.4,9.7,4,17.6,10,17.9
		c4.8,0.3,10.5-4.2,12.3-11.2l-7.3-7C272.1,398.6,274.1,385.9,274.6,371.3z"/>
	<ellipse class="st3" cx="262.8" cy="323.1" rx="4.2" ry="4"/>
	<ellipse class="st3" cx="263.9" cy="354.6" rx="4.2" ry="4"/>
	<ellipse class="st3" cx="263.9" cy="387.7" rx="4.2" ry="4"/>
</g>
<path class="st1" d="M248.5,292.4c13.2,0,26.5-0.6,39.6,1.7c-0.7-18.1-1.4-33.4-2.1-45c-2-34.9-4.4-60.7-6.7-80.8
	c-3.4-30.7-5.5-40.1-6.7-45.2c-4.7-19.8-11-35.1-15.7-45.2c-6.3,54.4-10.2,115.2-9.3,181.2C247.8,270.4,248.1,281.5,248.5,292.4z"/>
<rect x="167.6" y="275.3" class="st8" width="195.9" height="51.7"/>
<circle class="st9" cx="263.9" cy="265.2" r="210"/>
<path class="st10" d="M240.2,281.3l6.1-1.6c0.3,0,0.7,0.1,0.8,0.2c0.2,0.3-2.2,0.8-2.7,1c-3.5,0.8-10.9,3.4-22.2,7.3
	c-4.3,1.5-10,4.1-21.4,9.3c-4.4,2-7,3.3-10.1,5c-2.6,1.4-1.8,1.2-8.2,5c-2.1,1.3-3.5,2.1-5.3,3.4c-1.8,1.3-2.9,2.4-3.6,3.1
	c-2,1.9-3.5,2.9-3.9,4.5c-0.2,0.9,0,1.2,0.3,1.4c0.9,0.6,3.1,0.4,6.5-0.1c6.4-0.9,9.6-1.6,9.6-1.6c8.4-1.9,11.6-2.7,11.6-2.7
	c7.2-1.7,13.1-3.2,17.5-4.3c3.7-0.9,8.4-2.1,8.1-2.5c-0.1-0.2-1.2-0.1-1.5-0.1c-2,0.1-3.3,0.9-3.8,1.2c-4.6,2.7-11.3,5.1-10.4,5.8
	c0.3,0.2,2.1-0.1,3-0.2c0.8-0.1,1.4-0.3,1.5-0.3c2.3-0.6,16.8-5,19.3-6.3c0.1,0,0.4-0.2,0.6-0.2c0.3,0.1-0.1,0.7-0.3,1.1
	c-0.2,0.3-0.4,0.4-1,1.3c-0.2,0.3-0.3,0.4-0.3,0.7c0,0.1,0.1,0.5,0.6,0.7c0.7,0.3,1.8,0,2.4-0.1c2.5-0.6,5-1.3,6.6-1.8
	c3-0.9,6.4-2.1,10-3.5c2.5-1,4.6-2.1,6.5-3.1c0.3-0.2,1.1-0.8,0.7-1.1c-0.3-0.2-1.3,0-1.7,0.1c-3.8,0.9-7.8,3.5-10.7,5.3
	c-2.1,1.3-3.5,2.2-3,2.5c0.3,0.2,1.4,0.1,2.4,0c1.8-0.2,3-0.5,4.5-0.9c2.2-0.6,3.4-0.9,4.6-1.3c2.3-0.7,3.2-1.1,3.5-1
	c0.3,0.1-0.7,0.9-1.3,1.3c-1.3,0.9-3.1,1.6-3.1,1.6c-0.3,0.1-1.1,0.4-1.8,1c-0.3,0.2-0.5,0.4-0.4,0.4c0.3,0.2,2.6-0.3,4.5-1
	c1.1-0.4,2.4-0.9,3.5-1.7c0.3-0.2,0.5-0.4,0.9-0.5c0.8-0.3,1.6-0.2,3.3-0.2c2.4,0,3.1-0.2,3.3,0c0.3,0.3-0.6,0.8-1.6,1.4
	c-0.5,0.3-0.7,0.4-0.6,0.4c0.3,0.2,18.8-6,20.6-6.8c0.1,0,0.6-0.3,0.8-0.2c0.2,0.1,0,0.3,0,0.4c-0.5,0.9-4.4,1-5.4,2
	c-0.1,0.1-0.2,0.3-0.1,0.4c0.2,0.2,1.1,0.1,1.7,0c3.2-0.4,10-1.9,14.3-2.6c0.4-0.1,1.7-0.6,3.1-0.4c0.3,0,0.7,0.1,0.9,0.3
	c0.4,0.3-0.2,0.6-0.5,1.5c-0.1,0.4-0.1,0.6,0,0.7c0.4,0.4,2,0.4,4.1,0.2c4.2-0.3,7.2-1.1,10.5-1.5c0.3,0,1.4-0.1,3.6-0.2
	c0.7,0,1-0.1,1.1,0c0.4,0.3-1.8,1.3-3.1,1.9c-1.2,0.5-2.3,1-3.9,1.3c-0.8,0.2-1.6,0.3-2.5,0.7c-0.7,0.3-0.7,0.7-1.5,0.8
	c-0.5,0.1-0.9,0.1-1.7,0.1c-0.6,0-1.6,0.1-2.6,0.3l-60.4,9c-3.9,0.5-4.9,0.4-5,0.3c-0.1-0.1,0.2-0.4,4-1.4c5.2-1.5,8.2-2.1,8.2-2.1
	c9.5-2,12-3.1,27.6-6.3c5.6-1.1,9.9-1.9,15.4-2.9c3.6-0.7,8.7-1.6,15.3-2.7c7.6-1.3,13.4-2.1,17.8-2.8c8-1.2,14.1-2,21.9-3
	c6.9-0.9,12.6-1.7,16.6-2.2"/>
</svg>
