<?xml version="1.0" encoding="utf-8"?>
<!-- Generator: Adobe Illustrator 26.5.0, SVG Export Plug-In . SVG Version: 6.00 Build 0)  -->
<svg version="1.1" id="Layer_1" xmlns="http://www.w3.org/2000/svg" xmlns:xlink="http://www.w3.org/1999/xlink" x="0px" y="0px"
	 viewBox="0 0 512 512" style="enable-background:new 0 0 512 512;" xml:space="preserve">
<style type="text/css">
	.st0{fill:#FFFFFF;stroke:#010101;stroke-width:0.75;stroke-miterlimit:10;}
</style>
<g id="Layer_1-2">
	<g>
		<path class="st0" d="M317.3,93.1v-18H132.6v36h145.6c0.1,119.1,0.1,199.8,0,206.1c0,0.4,0,1,0,2c0.2,21.9-3.2,76.5-40.2,111
			c-21.8,20.3-52.7,30.7-91.8,30.7H146c-0.5,0-5.7,0-13.4-0.8v36.2c6.8,0.6,11.6,0.6,13.3,0.6c0.2,0,0.3,0,0.4,0
			c49.8,0,90-13.9,119.4-41.3c22.3-20.8,37.7-48.7,45.7-82.8c4-17.3,6-35.4,5.8-53.9v-0.8C317.4,311,317.3,127.5,317.3,93.1
			L317.3,93.1z"/>
		<path class="st0" d="M385.1,33.3V15H163.4c-20.2,0-36.6,16.4-36.6,36.6h218.7c0,83.5,0.1,268.4,0.1,268.4v73.2l0,0l0,0
			c21.9,0,39.6-25.9,39.6-43C385.1,332.8,385.1,57.2,385.1,33.3z"/>
	</g>
</g>
</svg>
