<?xml version="1.0" standalone="no"?>
<!DOCTYPE svg PUBLIC "-//W3C//DTD SVG 20010904//EN"
 "http://www.w3.org/TR/2001/REC-SVG-20010904/DTD/svg10.dtd">
<svg version="1.0" xmlns="http://www.w3.org/2000/svg"
 width="512.000000pt" height="512.000000pt" viewBox="0 0 512.000000 512.000000"
 preserveAspectRatio="xMidYMid meet">
<metadata>
Created by potrace 1.14, written by Peter Selinger 2001-2017
</metadata>
<g transform="translate(0.000000,512.000000) scale(0.100000,-0.100000)"
fill="#000000" stroke="none">
<path d="M1575 4968 c-68 -10 -166 -61 -210 -109 -47 -53 -93 -151 -97 -209
l-3 -45 1093 -3 c600 -1 1092 -5 1092 -10 0 -4 1 -772 3 -1707 2 -1503 4
-1700 17 -1700 8 -1 37 5 63 11 124 32 249 161 304 313 15 42 16 191 17 1754
l1 1707 -30 0 c-356 5 -2215 3 -2250 -2z"/>
<path d="M1344 4372 c-21 -3 -21 -8 -21 -183 0 -156 2 -179 16 -180 9 -1 336
-2 726 -3 l710 -1 0 -1115 c0 -1188 -1 -1207 -41 -1390 -28 -127 -35 -150 -79
-260 -111 -278 -312 -494 -560 -604 -72 -32 -80 -34 -130 -50 -164 -51 -309
-70 -511 -69 l-131 1 0 -185 0 -185 206 5 c113 3 222 8 241 12 19 3 69 12 110
20 41 8 87 16 101 19 49 8 234 74 312 111 491 229 793 697 873 1351 3 27 7
646 9 1377 2 978 0 1327 -9 1328 -51 2 -1806 3 -1822 1z"/>
</g>
</svg>
